{
  "accessors": [
    {
      "bufferView": 1,
      "componentType": 5126,
      "count": 65534,
      "max": [
        0.7204434871673584,
        0.7527442574501038,
        0.7409718036651611
      ],
      "min": [
        -0.7608468532562256,
        -0.751640260219574,
        -0.7671887278556824
      ],
      "type": "VEC3"
    },
    {
      "bufferView": 1,
      "byteOffset": 786408,
      "componentType": 5126,
      "count": 65534,
      "max": [
        0.9996469616889954,
        0.9868314862251282,
        1.0
      ],
      "min": [
        -0.9996469020843506,
        -0.9972712397575378,
        -1.0
      ],
      "type": "VEC3"
    },
    {
      "bufferView": 0,
      "componentType": 5125,
      "count": 87204,
      "type": "SCALAR"
    },
    {
      "bufferView": 1,
      "byteOffset": 1572816,
      "componentType": 5126,
      "count": 65533,
      "max": [
        0.7469756603240967,
        0.7527442574501038,
        0.75361168384552
      ],
      "min": [
        -0.7726758718490601,
        -0.7651436924934387,
        -0.7671887278556824
      ],
      "type": "VEC3"
    },
    {
      "bufferView": 1,
      "byteOffset": 2359212,
      "componentType": 5126,
      "count": 65533,
      "max": [
        0.9972155690193176,
        0.9776389598846436,
        0.9947781562805176
      ],
      "min": [
        -0.9972166419029236,
        -0.9776354432106018,
        -0.994796872138977
      ],
      "type": "VEC3"
    },
    {
      "bufferView": 0,
      "byteOffset": 348816,
      "componentType": 5125,
      "count": 69675,
      "type": "SCALAR"
    },
    {
      "bufferView": 1,
      "byteOffset": 3145608,
      "componentType": 5126,
      "count": 54723,
      "max": [
        0.7469756603240967,
        0.4227530062198639,
        0.75361168384552
      ],
      "min": [
        -0.7726758718490601,
        -0.7651436924934387,
        -0.7650418281555176
      ],
      "type": "VEC3"
    },
    {
      "bufferView": 1,
      "byteOffset": 3802284,
      "componentType": 5126,
      "count": 54723,
      "max": [
        0.9995437860488892,
        0.9985460638999939,
        1.0
      ],
      "min": [
        -0.9995114207267761,
        -0.9985445141792297,
        -1.0
      ],
      "type": "VEC3"
    },
    {
      "bufferView": 0,
      "byteOffset": 627516,
      "componentType": 5125,
      "count": 82083,
      "type": "SCALAR"
    },
    {
      "bufferView": 1,
      "byteOffset": 4458960,
      "componentType": 5126,
      "count": 65532,
      "max": [
        0.7151234745979309,
        0.7081506252288818,
        0.6953783631324768
      ],
      "min": [
        -0.6918138861656189,
        -0.6490486264228821,
        -0.726307213306427
      ],
      "type": "VEC3"
    },
    {
      "bufferView": 1,
      "byteOffset": 5245344,
      "componentType": 5126,
      "count": 65532,
      "max": [
        0.9997523427009583,
        0.9987229108810425,
        0.9999674558639526
      ],
      "min": [
        -0.999550998210907,
        -0.9993342161178589,
        -0.999970018863678
      ],
      "type": "VEC3"
    },
    {
      "bufferView": 0,
      "byteOffset": 955848,
      "componentType": 5125,
      "count": 87198,
      "type": "SCALAR"
    },
    {
      "bufferView": 1,
      "byteOffset": 6031728,
      "componentType": 5126,
      "count": 65533,
      "max": [
        0.7151234745979309,
        0.7081506252288818,
        0.7143862247467041
      ],
      "min": [
        -0.7223937511444092,
        -0.7227765321731567,
        -0.7283221483230591
      ],
      "type": "VEC3"
    },
    {
      "bufferView": 1,
      "byteOffset": 6818124,
      "componentType": 5126,
      "count": 65533,
      "max": [
        0.9968820810317993,
        0.9948142766952515,
        0.9997298121452332
      ],
      "min": [
        -0.9968814253807068,
        -0.9948118925094604,
        -0.9996695518493652
      ],
      "type": "VEC3"
    },
    {
      "bufferView": 0,
      "byteOffset": 1304640,
      "componentType": 5125,
      "count": 69675,
      "type": "SCALAR"
    },
    {
      "bufferView": 1,
      "byteOffset": 7604520,
      "componentType": 5126,
      "count": 54727,
      "max": [
        0.6958215832710266,
        0.5679512023925781,
        0.7143862247467041
      ],
      "min": [
        -0.7223937511444092,
        -0.7227765321731567,
        -0.7283221483230591
      ],
      "type": "VEC3"
    },
    {
      "bufferView": 1,
      "byteOffset": 8261244,
      "componentType": 5126,
      "count": 54727,
      "max": [
        0.9997501969337463,
        0.9999292492866516,
        0.9999940991401672
      ],
      "min": [
        -0.999908447265625,
        -0.9999880790710449,
        -0.9999922513961792
      ],
      "type": "VEC3"
    },
    {
      "bufferView": 0,
      "byteOffset": 1583340,
      "componentType": 5125,
      "count": 82089,
      "type": "SCALAR"
    },
    {
      "bufferView": 1,
      "byteOffset": 8917968,
      "componentType": 5126,
      "count": 65532,
      "max": [
        0.6279780268669128,
        0.6505321860313416,
        0.6447651982307434
      ],
      "min": [
        -0.6273226737976074,
        -0.65288907289505,
        -0.6344925165176392
      ],
      "type": "VEC3"
    },
    {
      "bufferView": 1,
      "byteOffset": 9704352,
      "componentType": 5126,
      "count": 65532,
      "max": [
        0.9996230602264404,
        0.997169554233551,
        0.9994996786117554
      ],
      "min": [
        -0.9998531937599182,
        -0.9971027374267578,
        -0.9996110200881958
      ],
      "type": "VEC3"
    },
    {
      "bufferView": 0,
      "byteOffset": 1911696,
      "componentType": 5125,
      "count": 87198,
      "type": "SCALAR"
    },
    {
      "bufferView": 1,
      "byteOffset": 10490736,
      "componentType": 5126,
      "count": 65532,
      "max": [
        0.6378394365310669,
        0.6505321860313416,
        0.6491391658782959
      ],
      "min": [
        -0.6565335392951965,
        -0.65288907289505,
        -0.6446142196655273
      ],
      "type": "VEC3"
    },
    {
      "bufferView": 1,
      "byteOffset": 11277120,
      "componentType": 5126,
      "count": 65532,
      "max": [
        0.9970065355300903,
        0.9918072819709778,
        0.9993991851806641
      ],
      "min": [
        -0.997007429599762,
        -0.9918043613433838,
        -0.9995732307434082
      ],
      "type": "VEC3"
    },
    {
      "bufferView": 0,
      "byteOffset": 2260488,
      "componentType": 5125,
      "count": 69672,
      "type": "SCALAR"
    },
    {
      "bufferView": 1,
      "byteOffset": 12063504,
      "componentType": 5126,
      "count": 54728,
      "max": [
        0.6378394365310669,
        0.5130969285964966,
        0.6491391658782959
      ],
      "min": [
        -0.6565335392951965,
        -0.568220317363739,
        -0.6446142196655273
      ],
      "type": "VEC3"
    },
    {
      "bufferView": 1,
      "byteOffset": 12720240,
      "componentType": 5126,
      "count": 54728,
      "max": [
        0.9999871253967285,
        0.9998170733451843,
        0.9992848038673401
      ],
      "min": [
        -0.999938428401947,
        -0.9994816184043884,
        -0.9995342493057251
      ],
      "type": "VEC3"
    },
    {
      "bufferView": 0,
      "byteOffset": 2539176,
      "componentType": 5125,
      "count": 82092,
      "type": "SCALAR"
    },
    {
      "bufferView": 1,
      "byteOffset": 13376976,
      "componentType": 5126,
      "count": 65533,
      "max": [
        0.49570631980895996,
        0.5291669964790344,
        0.5346482396125793
      ],
      "min": [
        -0.5360708832740784,
        -0.4788781702518463,
        -0.5354659557342529
      ],
      "type": "VEC3"
    },
    {
      "bufferView": 1,
      "byteOffset": 14163372,
      "componentType": 5126,
      "count": 65533,
      "max": [
        0.999991238117218,
        0.9994910955429077,
        0.9999255537986755
      ],
      "min": [
        -0.9999929070472717,
        -0.999478280544281,
        -0.9997609853744507
      ],
      "type": "VEC3"
    },
    {
      "bufferView": 0,
      "byteOffset": 2867544,
      "componentType": 5125,
      "count": 87201,
      "type": "SCALAR"
    },
    {
      "bufferView": 1,
      "byteOffset": 14949768,
      "componentType": 5126,
      "count": 65534,
      "max": [
        0.5317730903625488,
        0.5291669964790344,
        0.5346482396125793
      ],
      "min": [
        -0.5444290041923523,
        -0.5416712164878845,
        -0.5354659557342529
      ],
      "type": "VEC3"
    },
    {
      "bufferView": 1,
      "byteOffset": 15736176,
      "componentType": 5126,
      "count": 65534,
      "max": [
        0.9999796748161316,
        0.9982144832611084,
        0.996044397354126
      ],
      "min": [
        -0.9999368190765381,
        -0.9975144267082214,
        -0.9987010955810547
      ],
      "type": "VEC3"
    },
    {
      "bufferView": 0,
      "byteOffset": 3216348,
      "componentType": 5125,
      "count": 69678,
      "type": "SCALAR"
    },
    {
      "bufferView": 1,
      "byteOffset": 16522584,
      "componentType": 5126,
      "count": 54723,
      "max": [
        0.5317730903625488,
        0.49877434968948364,
        0.5207915306091309
      ],
      "min": [
        -0.5444290041923523,
        -0.5416712164878845,
        -0.497610479593277
      ],
      "type": "VEC3"
    },
    {
      "bufferView": 1,
      "byteOffset": 17179260,
      "componentType": 5126,
      "count": 54723,
      "max": [
        0.9994845390319824,
        0.9992657899856567,
        0.9999836683273315
      ],
      "min": [
        -0.9995282292366028,
        -0.9984462261199951,
        -0.9999822974205017
      ],
      "type": "VEC3"
    },
    {
      "bufferView": 0,
      "byteOffset": 3495060,
      "componentType": 5125,
      "count": 82083,
      "type": "SCALAR"
    },
    {
      "bufferView": 2,
      "componentType": 5126,
      "count": 150,
      "max": [
        6.25
      ],
      "min": [
        0.0416666679084301
      ],
      "type": "SCALAR"
    },
    {
      "bufferView": 3,
      "componentType": 5126,
      "count": 150,
      "max": [
        0.0,
        0.9995065927505493,
        -0.0,
        1.0
      ],
      "min": [
        0.0,
        -1.0,
        -0.0,
        4.371138828673793e-08
      ],
      "type": "VEC4"
    },
    {
      "bufferView": 2,
      "byteOffset": 600,
      "componentType": 5126,
      "count": 150,
      "max": [
        6.25
      ],
      "min": [
        0.0416666679084301
      ],
      "type": "SCALAR"
    },
    {
      "bufferView": 3,
      "byteOffset": 2400,
      "componentType": 5126,
      "count": 150,
      "max": [
        0.0,
        1.0,
        -0.0,
        1.0
      ],
      "min": [
        0.0,
        -0.9995065927505493,
        -0.0,
        4.371138828673793e-08
      ],
      "type": "VEC4"
    },
    {
      "bufferView": 2,
      "byteOffset": 1200,
      "componentType": 5126,
      "count": 150,
      "max": [
        6.25
      ],
      "min": [
        0.0416666679084301
      ],
      "type": "SCALAR"
    },
    {
      "bufferView": 3,
      "byteOffset": 4800,
      "componentType": 5126,
      "count": 150,
      "max": [
        0.0,
        0.9995065927505493,
        -0.0,
        1.0
      ],
      "min": [
        0.0,
        -1.0,
        -0.0,
        4.371138828673793e-08
      ],
      "type": "VEC4"
    },
    {
      "bufferView": 2,
      "byteOffset": 1800,
      "componentType": 5126,
      "count": 150,
      "max": [
        6.25
      ],
      "min": [
        0.0416666679084301
      ],
      "type": "SCALAR"
    },
    {
      "bufferView": 3,
      "byteOffset": 7200,
      "componentType": 5126,
      "count": 150,
      "max": [
        0.0,
        1.0,
        -0.0,
        1.0
      ],
      "min": [
        0.0,
        -0.9995065927505493,
        -0.0,
        4.371138828673793e-08
      ],
      "type": "VEC4"
    }
  ],
  "animations": [
    {
      "channels": [
        {
          "sampler": 0,
          "target": {
            "node": 3,
            "path": "rotation"
          }
        },
        {
          "sampler": 1,
          "target": {
            "node": 8,
            "path": "rotation"
          }
        },
        {
          "sampler": 2,
          "target": {
            "node": 13,
            "path": "rotation"
          }
        },
        {
          "sampler": 3,
          "target": {
            "node": 18,
            "path": "rotation"
          }
        }
      ],
      "name": "Animation",
      "samplers": [
        {
          "input": 36,
          "interpolation": "LINEAR",
          "output": 37
        },
        {
          "input": 38,
          "interpolation": "LINEAR",
          "output": 39
        },
        {
          "input": 40,
          "interpolation": "LINEAR",
          "output": 41
        },
        {
          "input": 42,
          "interpolation": "LINEAR",
          "output": 43
        }
      ]
    }
  ],
  "asset": {
    "extras": {
      "author": "smice (https://sketchfab.com/smice)",
      "license": "CC-BY-4.0 (http://creativecommons.org/licenses/by/4.0/)",
      "source": "https://sketchfab.com/3d-models/letter-sphere-07679c5e46e24589b07ac20e128d9839",
      "title": "Letter Sphere 🔠"
    },
    "generator": "Sketchfab-15.36.0",
    "version": "2.0"
  },
  "bufferViews": [
    {
      "buffer": 0,
      "byteLength": 3823392,
      "name": "floatBufferViews",
      "target": 34963
    },
    {
      "buffer": 0,
      "byteLength": 17835936,
      "byteOffset": 3823392,
      "byteStride": 12,
      "name": "floatBufferViews",
      "target": 34962
    },
    {
      "buffer": 0,
      "byteLength": 2400,
      "byteOffset": 21659328,
      "name": "floatBufferViews"
    },
    {
      "buffer": 0,
      "byteLength": 9600,
      "byteOffset": 21661728,
      "byteStride": 16,
      "name": "floatBufferViews"
    }
  ],
  "buffers": [
    {
      "byteLength": 21671328,
      "uri": "scene.bin"
    }
  ],
  "extensionsUsed": [
    "KHR_materials_clearcoat"
  ],
  "materials": [
    {
      "doubleSided": true,
      "extensions": {
        "KHR_materials_clearcoat": {
          "clearcoatFactor": 1.0,
          "clearcoatRoughnessFactor": 0.04
        }
      },
      "name": "Fonts.001",
      "pbrMetallicRoughness": {
        "baseColorFactor": [
          1.0,
          0.7807495145728535,
          0.14430706441529761,
          1.0
        ],
        "metallicFactor": 0.22739545845884737,
        "roughnessFactor": 0.3203284827898748
      }
    },
    {
      "doubleSided": true,
      "extensions": {
        "KHR_materials_clearcoat": {
          "clearcoatFactor": 1.0,
          "clearcoatRoughnessFactor": 0.04
        }
      },
      "name": "Fonts.002",
      "pbrMetallicRoughness": {
        "baseColorFactor": [
          0.08044651363453362,
          0.6689518914148486,
          1.0,
          1.0
        ],
        "metallicFactor": 0.734139,
        "roughnessFactor": 0.164653
      }
    },
    {
      "doubleSided": true,
      "extensions": {
        "KHR_materials_clearcoat": {
          "clearcoatFactor": 1.0,
          "clearcoatRoughnessFactor": 0.04
        }
      },
      "name": "Fonts.003",
      "pbrMetallicRoughness": {
        "baseColorFactor": [
          0.9360097689829315,
          0.0,
          0.0,
          1.0
        ],
        "metallicFactor": 0.21577883041746893,
        "roughnessFactor": 0.0415294097967925
      }
    },
    {
      "doubleSided": true,
      "extensions": {
        "KHR_materials_clearcoat": {
          "clearcoatFactor": 1.0,
          "clearcoatRoughnessFactor": 0.04
        }
      },
      "name": "Fonts.004",
      "pbrMetallicRoughness": {
        "baseColorFactor": [
          0.041480092190674785,
          0.6631951249353933,
          0.13686498473415643,
          1.0
        ],
        "metallicFactor": 0.0,
        "roughnessFactor": 0.09884011514120372
      }
    }
  ],
  "meshes": [
    {
      "name": "Object_0",
      "primitives": [
        {
          "attributes": {
            "NORMAL": 1,
            "POSITION": 0
          },
          "indices": 2,
          "material": 0,
          "mode": 4
        }
      ]
    },
    {
      "name": "Object_1",
      "primitives": [
        {
          "attributes": {
            "NORMAL": 4,
            "POSITION": 3
          },
          "indices": 5,
          "material": 0,
          "mode": 4
        }
      ]
    },
    {
      "name": "Object_2",
      "primitives": [
        {
          "attributes": {
            "NORMAL": 7,
            "POSITION": 6
          },
          "indices": 8,
          "material": 0,
          "mode": 4
        }
      ]
    },
    {
      "name": "Object_3",
      "primitives": [
        {
          "attributes": {
            "NORMAL": 10,
            "POSITION": 9
          },
          "indices": 11,
          "material": 1,
          "mode": 4
        }
      ]
    },
    {
      "name": "Object_4",
      "primitives": [
        {
          "attributes": {
            "NORMAL": 13,
            "POSITION": 12
          },
          "indices": 14,
          "material": 1,
          "mode": 4
        }
      ]
    },
    {
      "name": "Object_5",
      "primitives": [
        {
          "attributes": {
            "NORMAL": 16,
            "POSITION": 15
          },
          "indices": 17,
          "material": 1,
          "mode": 4
        }
      ]
    },
    {
      "name": "Object_6",
      "primitives": [
        {
          "attributes": {
            "NORMAL": 19,
            "POSITION": 18
          },
          "indices": 20,
          "material": 2,
          "mode": 4
        }
      ]
    },
    {
      "name": "Object_7",
      "primitives": [
        {
          "attributes": {
            "NORMAL": 22,
            "POSITION": 21
          },
          "indices": 23,
          "material": 2,
          "mode": 4
        }
      ]
    },
    {
      "name": "Object_8",
      "primitives": [
        {
          "attributes": {
            "NORMAL": 25,
            "POSITION": 24
          },
          "indices": 26,
          "material": 2,
          "mode": 4
        }
      ]
    },
    {
      "name": "Object_9",
      "primitives": [
        {
          "attributes": {
            "NORMAL": 28,
            "POSITION": 27
          },
          "indices": 29,
          "material": 3,
          "mode": 4
        }
      ]
    },
    {
      "name": "Object_10",
      "primitives": [
        {
          "attributes": {
            "NORMAL": 31,
            "POSITION": 30
          },
          "indices": 32,
          "material": 3,
          "mode": 4
        }
      ]
    },
    {
      "name": "Object_11",
      "primitives": [
        {
          "attributes": {
            "NORMAL": 34,
            "POSITION": 33
          },
          "indices": 35,
          "material": 3,
          "mode": 4
        }
      ]
    }
  ],
  "nodes": [
    {
      "children": [
        1
      ],
      "matrix": [
        1.0,
        0.0,
        0.0,
        0.0,
        0.0,
        2.220446049250313e-16,
        -1.0,
        0.0,
        0.0,
        1.0,
        2.220446049250313e-16,
        0.0,
        0.0,
        0.0,
        0.0,
        1.0
      ],
      "name": "Sketchfab_model"
    },
    {
      "children": [
        2
      ],
      "name": "root"
    },
    {
      "children": [
        3,
        8,
        13,
        18
      ],
      "matrix": [
        1.0,
        0.0,
        0.0,
        0.0,
        0.0,
        2.220446049250313e-16,
        1.0,
        0.0,
        0.0,
        -1.0,
        2.220446049250313e-16,
        0.0,
        0.0,
        0.0,
        0.0,
        1.0
      ],
      "name": "GLTF_SceneRootNode"
    },
    {
      "children": [
        4
      ],
      "name": "Empty_1"
    },
    {
      "children": [
        5,
        6,
        7
      ],
      "matrix": [
        1.0,
        0.0,
        0.0,
        0.0,
        0.0,
        1.0,
        0.0,
        0.0,
        0.0,
        0.0,
        1.0,
        0.0,
        0.011666012927889824,
        0.0038656548131257296,
        0.004949691239744425,
        1.0
      ],
      "name": "Words.001_0"
    },
    {
      "mesh": 0,
      "name": "Object_5"
    },
    {
      "mesh": 1,
      "name": "Object_6"
    },
    {
      "mesh": 2,
      "name": "Object_7"
    },
    {
      "children": [
        9
      ],
      "name": "Empty.001_3"
    },
    {
      "children": [
        10,
        11,
        12
      ],
      "matrix": [
        1.0,
        0.0,
        0.0,
        0.0,
        0.0,
        1.0,
        0.0,
        0.0,
        0.0,
        0.0,
        1.0,
        0.0,
        0.00588196562603116,
        0.006916374899446964,
        0.008560379035770893,
        1.0
      ],
      "name": "Words.002_2"
    },
    {
      "mesh": 3,
      "name": "Object_10"
    },
    {
      "mesh": 4,
      "name": "Object_11"
    },
    {
      "mesh": 5,
      "name": "Object_12"
    },
    {
      "children": [
        14
      ],
      "name": "Empty.002_5"
    },
    {
      "children": [
        15,
        16,
        17
      ],
      "matrix": [
        1.0,
        0.0,
        0.0,
        0.0,
        0.0,
        1.0,
        0.0,
        0.0,
        0.0,
        0.0,
        1.0,
        0.0,
        0.011250187642872334,
        0.0005432727048173547,
        -0.0002995774557348341,
        1.0
      ],
      "name": "Words.003_4"
    },
    {
      "mesh": 6,
      "name": "Object_15"
    },
    {
      "mesh": 7,
      "name": "Object_16"
    },
    {
      "mesh": 8,
      "name": "Object_17"
    },
    {
      "children": [
        19
      ],
      "name": "Empty.003_7"
    },
    {
      "children": [
        20,
        21,
        22
      ],
      "matrix": [
        1.0,
        0.0,
        0.0,
        0.0,
        0.0,
        1.0,
        0.0,
        0.0,
        0.0,
        0.0,
        1.0,
        0.0,
        0.007234577089548111,
        0.005856637377291918,
        0.0004885526723228395,
        1.0
      ],
      "name": "Words.004_6"
    },
    {
      "mesh": 9,
      "name": "Object_20"
    },
    {
      "mesh": 10,
      "name": "Object_21"
    },
    {
      "mesh": 11,
      "name": "Object_22"
    }
  ],
  "scene": 0,
  "scenes": [
    {
      "name": "Sketchfab_Scene",
      "nodes": [
        0
      ]
    }
  ]
}
